<?xml version="1.0" ?><svg id="Layer_1" style="enable-background:new 0 0 128 128;" version="1.1" viewBox="0 0 128 128" xml:space="preserve" xmlns="http://www.w3.org/2000/svg" xmlns:xlink="http://www.w3.org/1999/xlink"><style type="text/css">
	.st0{fill:#F9ED32;}
	.st1{fill:#E8D103;}
	.st2{fill:#FF3333;}
	.st3{fill:#EA0303;}
	.st4{fill:#231F20;}
</style><path class="st0" d="M19.9,36.8l14.8-4.3l3.4,2.1l9.6-2.1l2.6-6.5H67v6.5l7.8-2.2l3.3-8.9l13.4,0.1l2.8,5.2l9.4,1.8l2.4,29.8  c0,0-21.4,16.8-42.1,14.5s-41.5-13-41.5-13L19.9,36.8z"/><polygon class="st1" points="33.6,32.5 26.6,61.9 37.6,67.4 "/><polygon class="st1" points="48.4,33.9 39.8,65.9 50.8,71.4 "/><polygon class="st1" points="50.8,26.6 52.5,67.8 67.4,70.9 "/><polygon class="st1" points="80.1,21.4 69,73.5 106.8,59.3 "/><path class="st2" d="M108.8,76.2c-0.5,13-1.8,27.7-4.8,29.6c-5.3,3.5-3.8-5.6-35-5.6s-42.4,6.4-42.4,6.4s-2.7-3.2-5.1-9.9  c-1.8-5-3.3-11.9-3.3-21c8.2,3.5,21.8,6.8,43.5,6.8C82.6,82.6,98,79.6,108.8,76.2z"/><path class="st3" d="M109,70.6c-0.1,1.8-0.1,3.7-0.2,5.6C98,79.6,82.9,85,62,85c-21.8,0-35.5-5.7-43.8-9.2c0-5.2,0.5-11,1.7-17.6  c0,0,13,14.5,46.1,14.5S109.2,56,109.2,56S109.2,62.4,109,70.6z"/><path class="st4" d="M107.6,45.8c-0.9-0.1-0.7-11.5-0.7-17.1c0-1.3-0.9-2.2-2-2.7c-3.4-1.2-6.8-1.9-10.4-2.1  c-0.1-1.1-0.3-2.2-0.4-3.2c-0.2-1.3-1.5-1.9-2.7-2c-2.7-0.3-5.5-0.6-8.3-0.7c-1.9-0.1-4.9-0.6-6.6,0.7c-1.3,1.1-1.5,3.1-1.9,4.7  c-0.5,2-0.9,4-1.3,6c-1,0-2,0.1-3,0.2c0-0.9-0.1-1.9-0.2-2.8c-0.1-1.6-1.2-2.6-2.8-2.8c-6.1-0.7-12.2-0.8-18.3-0.4  c-1.6,0.1-2.6,1.2-2.8,2.8c-0.2,1.5-0.5,2.9-0.7,4.3c-2.6,0.5-5.2,1.3-7.7,2.3c0-0.5,0-0.9,0-1.4c0-1.8-1.8-3.2-3.5-2.7  c-5.3,1.6-10.4,3.5-15.4,5.8c-1.2,0.6-1.4,2-1.3,3.1c0.5,3.2,1.1,6.4,1.8,9.6c-14.2,4.5,0.2,57.6,2.2,60.4  c4.3,5.9,11.6-1.2,16.5-2.7c15.4-4.8,38.2-4.5,51.9,0.2c5.4,1.9,12.9,9.1,16.6,0.9C110.4,98.5,121.7,47.3,107.6,45.8z M95.7,29.5  c2,0.2,3.8,0.6,5.7,1.1c0.1,9.1,0.4,18.3,1.7,27.3c-3.3,2.5-8.1,4.8-11.7,6.3C92.9,55.8,95.5,32.3,95.7,29.5z M80.3,23.2  c2.7-0.3,5.8,0.1,8.7,0.6c0,0.3,0,0.7,0.1,1c0.1,1.8,0.2,3.6,0.3,5.4c0.1,2.5,0.3,5.1,0.2,7.6c-0.9,9.1-3.8,28.1-3.7,28.5  c-0.2,0.1-0.5,0.1-0.7,0.2c-0.8-11.6-0.9-23.2-0.2-34.8c0.1-1.5-1.3-2.8-2.8-2.8c-1.1,0-2.1,0-3.2,0.1C79.3,27.1,79.6,25,80.3,23.2z   M71.2,69.1c-0.5-6.9-0.7-13.8-0.9-20.7c-0.2-4.5,0.1-9,0.2-13.5c2.9-0.2,5.9-0.3,8.8-0.4c-0.5,10.9,0.4,33.1,0.5,33.2  C76.9,68.4,74.1,68.8,71.2,69.1z M51.5,28.8c4.5-0.2,8.9-0.1,13.4,0.3c0.2,6.4-0.4,12.9-0.2,19.3c0.3,7,0.4,14,1,21  c-0.5,0-0.9,0-1.4,0c-3.1,0-6.2-0.1-9.3-0.5c-1.1-12.2-1.4-24.3-0.8-36.5c0.1-1.4-1.3-2.9-2.8-2.8C51.5,29.7,51.5,29.1,51.5,28.8z   M48.7,35.7c-0.4,10.9-0.1,21.7,0.8,32.5c-2.6-0.5-5.2-1.1-7.7-1.9c-2-9.2-3.1-18.5-3.5-27.9C38.6,38.4,48.5,35.7,48.7,35.7z   M29.5,61c0-0.3-4.7-15-5.9-22.4c3-1.3,6-2.5,9-3.5c0.3,9.7,1.3,19.4,3.1,28.9C34.1,63.4,30.1,61.4,29.5,61z M103,100  c-0.5,1.9-0.6,4-3.2,3.7c-1.5-0.2-3.8-2.2-5.3-2.8c-3-1.2-6-2-9.2-2.5c-7-1.1-14.2-0.9-21.3-0.9c-6.6,0-13.2-0.2-19.8,0.7  c-3.2,0.4-6.3,1.1-9.3,2.2c-2,0.7-7.1,4.5-9,2.8c-0.6-0.6-1.3-4.6-1.5-5.4c-0.4-1.8-0.8-3.6-1.2-5.4c-0.9-4.6-1.6-9.2-2-13.9  c-0.4-5.5-0.5-11-0.2-16.4c1.8,1.5,3.9,2.7,5.7,3.7c10.9,6.2,23.6,9.1,36,9.2c12.6,0.1,25.4-2.5,36.8-8c2.5-1.2,5.3-3.2,7.6-5.5  C107.6,74.4,106.3,87.5,103,100z"/></svg>