<?xml version="1.0" ?><svg width="32px" height="32px" viewBox="0 0 32 32" xmlns="http://www.w3.org/2000/svg"><title/><path d="M20.85,18.91C20.8,15,21,8.68,13,2c0,0,1,12-10,16a25.36,25.36,0,0,0,13,4.6S20.89,22.6,20.85,18.91Z" style="fill: #0bf"/><path d="M1,23v5s12.25,3.69,21,1c7.76-2.39,9-11,9-11C21,23,18,23,1,23Z" style="fill: none;stroke: #000;stroke-linecap: round;stroke-linejoin: round;stroke-width: 2px"/><path d="M20.85,18.91C21,15.18,21,8.68,13,2c0,0,1,12-10,16a25.36,25.36,0,0,0,13,4.6" style="fill: none;stroke: #000;stroke-linecap: round;stroke-linejoin: round;stroke-width: 2px"/><polyline points="13 2 6 2 9 4.5 6 7 12 7" style="fill: none;stroke: #000;stroke-linecap: round;stroke-linejoin: round;stroke-width: 2px"/></svg>